<svg height="32" viewBox="0 0 32 32" width="32" xmlns="http://www.w3.org/2000/svg"><circle cx="16" cy="16" r="2"/><path d="m30 6a2.0023 2.0023 0 0 0 -2-2h-24a2.0023 2.0023 0 0 0 -2 2v20a2.0023 2.0023 0 0 0 2 2h24a2.0023 2.0023 0 0 0 2-2zm-2 6.9258-5.0364-6.9258h5.0364zm-.2363 3.0742-7.2727 10h-8.982l-7.2727-10 7.2727-10h8.982zm-18.7273-10-5.0364 6.9248v-6.9248zm-5.0364 13.0752 5.0364 6.9248h-5.0364zm18.9636 6.9248 5.0374-6.9263-.001 6.9263z" fill="#171717"/><path d="m0 0h32v32h-32z" fill="none" transform="matrix(-1 0 0 -1 32 32)"/></svg>