<svg height="32" viewBox="0 0 32 32" width="32" xmlns="http://www.w3.org/2000/svg"><path d="m16 24a8 8 0 1 1 8-8 8.0092 8.0092 0 0 1 -8 8zm0-14a6 6 0 1 0 6 6 6.0067 6.0067 0 0 0 -6-6z"/><circle cx="16" cy="16" r="2"/><circle cx="16" cy="4" r="2"/><circle cx="16" cy="28" r="2"/><circle cx="28" cy="16" r="2"/><circle cx="4" cy="16" r="2"/><circle cx="7.5147" cy="7.5147" r="2"/><circle cx="24.4853" cy="24.4853" r="2"/><circle cx="24.4853" cy="7.5147" r="2"/><circle cx="7.5147" cy="24.4853" r="2"/><path d="m0 0h32v32h-32z" fill="none" transform="matrix(-1 0 0 -1 32 32)"/></svg>