<svg height="32" viewBox="0 0 32 32" width="32" xmlns="http://www.w3.org/2000/svg"><g fill="#171717"><path d="m16 20a4 4 0 1 1 4-4 4.0045 4.0045 0 0 1 -4 4zm0-6a2 2 0 1 0 2 2 2.0021 2.0021 0 0 0 -2-2z"/><path d="m24 24h-16a2.0021 2.0021 0 0 1 -2-2v-12a2.0021 2.0021 0 0 1 2-2h16a2.0021 2.0021 0 0 1 2 2v12a2.0021 2.0021 0 0 1 -2 2zm-16-14v12h16v-12z"/><path d="m28 28h-24a2.0021 2.0021 0 0 1 -2-2v-20a2.0021 2.0021 0 0 1 2-2h24a2.0021 2.0021 0 0 1 2 2v20a2.0021 2.0021 0 0 1 -2 2zm-24-22v20h24v-20z"/></g><path d="m0 0h32v32h-32z" fill="none" transform="matrix(-1 0 0 -1 32 32)"/></svg>