<svg height="32" viewBox="0 0 32 32" width="32" xmlns="http://www.w3.org/2000/svg"><circle cx="16" cy="14" r="2"/><path d="m20 28h-8a1 1 0 0 1 -1-1v-5.7344l-3.7388-6.5425-4.7758-2.8657a1 1 0 0 1 -.3536-1.3535l4-7a1 1 0 0 1 1.3828-.3613l4.7623 2.8574h7.4462l4.7623-2.8574a1 1 0 0 1 1.3828.3613l4 7a1 1 0 0 1 -.3536 1.3535l-4.7758 2.8657-3.7388 6.5425v5.7344a1 1 0 0 1 -1 1zm-7-2h6v-5.2654l4.2616-7.4578 4.3844-2.6306-3.0073-5.2631-4.3617 2.6169h-8.554l-4.3617-2.6169-3.0073 5.2631 4.3844 2.6306 4.2616 7.4578z"/><path d="m0 0h32v32h-32z" fill="none" transform="matrix(-1 0 0 -1 32 32)"/></svg>