<svg height="32" viewBox="0 0 32 32" width="32" xmlns="http://www.w3.org/2000/svg"><circle cx="16" cy="14" r="2"/><path d="m29.8682 10.5039-4-7a.9992.9992 0 0 0 -1.3828-.3613l-4.7623 2.8574h-7.4462l-4.7623-2.8574a.9992.9992 0 0 0 -1.3828.3613l-4 7a1 1 0 0 0 .3536 1.3535l4.7758 2.8657 3.7388 6.5425v5.7344a1 1 0 0 0 1 1h8a1 1 0 0 0 1-1v-5.7344l3.7388-6.5425 4.7758-2.8657a1 1 0 0 0 .3536-1.3535zm-11.0198 10.4961h-5.6968l-4.5759-8.0078 2.853-4.9922h9.1426l2.853 4.9922z"/><path d="m0 0h32v32h-32z" fill="none" transform="matrix(-1 0 0 -1 32 32)"/></svg>